<svg id="Layer_1" data-name="Layer 1" xmlns="http://www.w3.org/2000/svg" viewBox="0 0 612 166.11"><defs><style>.cls-1{fill:#fdb913;}.cls-2{isolation:isolate;}</style></defs><ellipse id="Ellipse_1" data-name="Ellipse 1" class="cls-1" cx="63.85" cy="52.37" rx="55.28" ry="52.37"/><g id="Jackson" class="cls-2"><g class="cls-2"><path d="M19.41,448.09C7,448.09,0,442.92,0,434c0-6,4.05-11.87,11.59-11.87C25,422.12,28.35,439,35.05,439c4.89,0,8.24-6.56,8.24-35.19V323.24c0-1.4-.28-1.68-1.67-2l-6.15-1c-.83-.14-1.11-.56-1.11-3.08s.28-2.93,1.11-2.93c3.22,0,14.25,1,25.84,1s22.76-1,26-1c.83,0,1.11.42,1.11,2.93s-.28,2.94-1.11,3.08l-6.15,1c-1.4.28-1.68.56-1.68,2v31.14c0,11.17.28,21.93.28,35.89C79.74,420,53.77,448.09,19.41,448.09Z" transform="translate(0 -281.98)"/><path d="M133.38,400.33c-4.47,11.17-13,17.73-23.19,17.73-10.75,0-18.15-8.65-18.15-19.55,0-8.52,2.65-13.4,9.91-17.31,6.57-3.5,17-6.57,30.31-9.5v-4.47c0-10.06-3.07-16.2-8.38-16.2-1.4,0-2,.42-2.24,2.23l-1,6.71c-1.4,10-7.27,14.8-15.09,14.8-4.33,0-8.24-2.65-8.24-7.82,0-8.94,17.32-22.62,38.69-22.62,19,0,27.93,7.54,27.93,21.08v25.7c0,11.17,2.24,11.45,6,8.94.41-.28.56-.42.83-.42,1.26,0,3.36,3.07,3.36,3.91s-.56,1.26-1.4,2.1l-.56.55c-8.38,8.38-14.38,11.87-21.23,11.87C142.73,418.06,136.87,412.48,133.38,400.33Zm-1.12-2.1v-9.91a9.53,9.53,0,0,0-2.93-7,8.57,8.57,0,0,0-5.45-2.66c-2.79,0-4,1.68-4,5.87,0,7.82,5.31,14.66,9.91,14.66A3.27,3.27,0,0,0,132.26,398.23Z" transform="translate(0 -281.98)"/><path d="M212.15,418.06c-20.81,0-35.9-14.52-35.9-36.31,0-22.34,18.3-37.42,43-37.42,17.74,0,27.65,9.35,27.65,18.57,0,5.45-4.19,9.64-10.47,9.64s-10.9-3.91-14.95-11.59c-5.16-9.78-7.12-11.46-10.19-11.46s-5,2.1-5,7.41c0,12.15,6.29,28.49,14.66,36.87,4.19,4.18,7,5.44,11.46,5.44,4,0,7-1.53,10.47-4.47,1.26-1,4.75,1.54,4.19,2.94C242.73,408.15,229.46,418.06,212.15,418.06Z" transform="translate(0 -281.98)"/><path d="M357.67,413.88c0,2.51-.28,2.93-1.11,2.93-3.22,0-14.53-1-27.52-1-11.59,0-23,1-26.25,1-.84,0-1.12-.42-1.12-2.93s.28-2.94,1.12-3.08l4.61-.7c1.39-.27,1.25-.83.27-2.09l-15.78-22.62v22.48c0,1.4.28,1.68,1.68,2l4.05,1c.84.14,1.12.56,1.12,3.08s-.28,2.93-1.12,2.93c-3.21,0-11.59-1-21.79-1s-19.41,1-22.62,1c-.84,0-1.12-.42-1.12-2.93s.28-2.94,1.12-3.08l4.75-1c1.39-.28,1.67-.56,1.67-2V336c0-1.4-.28-1.54-1.67-1.82l-4.75-.84c-.84-.14-1.12-.41-1.12-2.65,0-2.09.28-2.37,1.12-2.65,11.45-4.47,23.88-11.6,35-19.28a1.85,1.85,0,0,1,1.12-.41c1,0,3.63,1.11,3.63,2.09,0,2.37-1.12,11.87-1.12,29.05v39.8l10.34-8.1c19.41-15.22,19.69-16.62,16.9-17.46L309.49,351c-.84-.28-1.12-.56-1.12-3.07s.28-2.94,1.12-2.94c3.21,0,14.66,1,22.07,1s18.57-1,21.78-1c.84,0,1.12.42,1.12,2.94s-.28,2.79-1.12,3.07l-10.89,3.21c-2.79.84-6.42,2.52-25,16.62l-.42.42L349,408a4.49,4.49,0,0,0,3.22,2l4.33.83C357.39,410.94,357.67,411.36,357.67,413.88Z" transform="translate(0 -281.98)"/><path d="M364.94,390c2.65,0,3.07.28,3.49,1.4,2.79,7,5,12.29,7.4,16.34s5.45,5.31,9.64,5.31c6.14,0,9.78-3.07,9.78-8.24s-2.66-8.38-12.58-11.31c-17-5-21.22-12.85-21.22-24.86,0-13.83,12.43-25,35.19-25a121.11,121.11,0,0,1,15.5,1.25c2.8.42,3.08.7,3.08,3.5V365c0,1.11-.28,1.39-2.94,1.39s-3.07-.28-3.49-1.39l-4.33-11c-1.39-3.35-3.77-5.3-8.38-5.3s-8.38,1.95-8.38,7.12c0,4.61,2.24,7,11.59,10.33,15.79,5.59,20.81,13.83,20.81,24.44,0,16.34-12.85,27.51-35.19,27.51a66.35,66.35,0,0,1-21.37-3.21c-2.79-.84-3.07-1.11-3.07-3.91,0-5.17.7-13.13,1.4-19.55C362,390.27,362.43,390,364.94,390Z" transform="translate(0 -281.98)"/><path d="M470.38,344.33c24.3,0,41.06,13.68,41.06,36.31,0,23.74-18,37.42-43.85,37.42-24.3,0-41.06-13.68-41.06-36.31C426.53,358,444.55,344.33,470.38,344.33Zm1.12,66.47c1.68,1.68,2.93,2.1,4.33,2.1,2.79,0,5.17-1.82,5.17-9.22,0-14.66-8.52-46.09-14.53-52.09-1.67-1.68-2.93-2.1-4.33-2.1-2.79,0-5.17,1.82-5.17,9.22C457,373.37,465.5,404.8,471.5,410.8Z" transform="translate(0 -281.98)"/><path d="M612,413.88c0,2.51-.28,2.93-1.12,2.93-3.21,0-12.29-1-22.48-1s-18.44,1-21.65,1c-.84,0-1.12-.42-1.12-2.93s.28-2.8,1.12-3.08l3.77-1c1.4-.42,1.68-.56,1.68-2V380.36c0-13-3.08-17.6-12.43-17.6a10.13,10.13,0,0,0-3.07.42v44.69c0,1.4.27,1.54,1.67,2l3.77,1c.84.28,1.12.56,1.12,3.08s-.28,2.93-1.12,2.93c-3.21,0-11.31-1-21.51-1s-19.41,1-22.62,1c-.84,0-1.12-.42-1.12-2.93s.28-2.94,1.12-3.08l4.75-1c1.4-.28,1.67-.56,1.67-2V371.14c0-1.4-.27-1.54-1.67-1.82l-4.75-.83c-.84-.14-1.12-.42-1.12-2.66,0-2.09.28-2.37,1.12-2.65,11.45-4.47,22.35-11.31,33.52-19.27a1.86,1.86,0,0,1,1.12-.42c1,0,3.63,1.12,3.63,2.09,0,2.24-.56,6.85-.56,15.23,3.77-8.24,12.71-16.48,25-16.48,14.66,0,23.74,8.79,23.74,23.88v39.66c0,1.4.28,1.68,1.67,2l4.75,1C611.72,410.94,612,411.36,612,413.88Z" transform="translate(0 -281.98)"/></g></g></svg>